<svg width="1200" height="457" viewBox="0 0 1200 457" fill="none" xmlns="http://www.w3.org/2000/svg">
<g clip-path="url(#clip0_2380_148)">
<path d="M1140 0H60C26.8629 0 0 26.8629 0 60V397C0 430.137 26.8629 457 60 457H1140C1173.14 457 1200 430.137 1200 397V60C1200 26.8629 1173.14 0 1140 0Z" fill="black"/>
<path d="M195 215.406L265.406 145V180.203H335.812L265.406 233.008V285.812L195 215.406Z" fill="white"/>
<path d="M441.422 215.406L371.015 285.812V250.609H300.609L371.015 197.805V145L441.422 215.406Z" fill="white"/>
<path d="M578.262 277.226V154.009H608.044V206.112H609.668L650.4 154.009H685.475L641.796 209L686.257 277.226H650.64L619.956 228.794L608.044 243.835V277.226H578.262Z" fill="white"/>
<path d="M472.687 277.226V260.26L532.55 178.195H472.747V154.009H570.213V170.976L510.35 253.04H570.153V277.226H472.687Z" fill="white"/>
<path d="M970.297 279.151C962.034 279.151 954.834 277.085 948.698 272.954C942.601 268.823 937.868 263.167 934.499 255.988C931.13 248.808 929.445 240.626 929.445 231.441C929.445 222.175 931.15 213.933 934.559 206.713C938.008 199.493 942.782 193.838 948.878 189.747C954.975 185.615 962.054 183.55 970.116 183.55C976.293 183.55 981.888 184.753 986.902 187.16C991.916 189.526 996.047 192.875 999.296 197.207C1002.58 201.499 1004.65 206.513 1005.49 212.248H994.663C993.54 207.034 990.833 202.582 986.541 198.892C982.289 195.162 976.875 193.296 970.297 193.296C964.401 193.296 959.186 194.901 954.654 198.11C950.122 201.278 946.572 205.71 944.005 211.406C941.478 217.061 940.214 223.619 940.214 231.08C940.214 238.58 941.458 245.218 943.945 250.994C946.431 256.73 949.921 261.222 954.413 264.471C958.946 267.72 964.24 269.344 970.297 269.344C974.388 269.344 978.118 268.582 981.487 267.058C984.897 265.494 987.744 263.288 990.031 260.44C992.357 257.592 993.921 254.203 994.723 250.272H1005.55C1004.75 255.847 1002.77 260.821 999.597 265.193C996.468 269.525 992.397 272.934 987.383 275.421C982.41 277.908 976.714 279.151 970.297 279.151Z" fill="white"/>
<path d="M858.654 219.467V277.225H847.945V184.813H858.353V199.312H859.316C861.482 194.579 864.851 190.789 869.424 187.941C874.036 185.053 879.732 183.609 886.51 183.609C892.727 183.609 898.182 184.913 902.875 187.52C907.608 190.087 911.278 193.877 913.885 198.891C916.532 203.905 917.856 210.062 917.856 217.362V277.225H907.147V218.023C907.147 210.443 905.021 204.446 900.769 200.034C896.558 195.622 890.902 193.416 883.803 193.416C878.95 193.416 874.638 194.459 870.867 196.545C867.097 198.63 864.109 201.639 861.903 205.569C859.737 209.46 858.654 214.093 858.654 219.467Z" fill="white"/>
<path d="M774.777 311.88C772.652 311.88 770.666 311.68 768.821 311.278C766.976 310.877 765.512 310.436 764.429 309.955L767.317 300.509C770.967 301.632 774.216 302.033 777.064 301.712C779.911 301.432 782.438 300.148 784.644 297.862C786.85 295.616 788.816 292.166 790.54 287.514L793.91 278.128L759.917 184.813H771.528L798.963 263.087H799.806L827.241 184.813H838.852L799.746 291.845C798.101 296.298 796.076 300.008 793.669 302.976C791.262 305.984 788.475 308.21 785.306 309.654C782.178 311.138 778.668 311.88 774.777 311.88Z" fill="white"/>
<path d="M754.404 205.089L744.597 207.856C743.634 205.089 742.271 202.582 740.506 200.336C738.741 198.09 736.435 196.305 733.587 194.981C730.779 193.657 727.29 192.996 723.118 192.996C716.861 192.996 711.727 194.48 707.716 197.448C703.705 200.416 701.7 204.246 701.7 208.939C701.7 212.91 703.064 216.139 705.791 218.626C708.559 221.072 712.81 223.018 718.546 224.462L732.504 227.891C740.245 229.776 746.041 232.764 749.892 236.855C753.782 240.947 755.727 246.081 755.727 252.258C755.727 257.472 754.284 262.104 751.396 266.155C748.508 270.207 744.477 273.395 739.303 275.722C734.169 278.008 728.212 279.151 721.434 279.151C712.409 279.151 704.969 277.125 699.113 273.074C693.257 268.983 689.507 263.087 687.862 255.386L698.15 252.859C699.474 258.354 702.061 262.506 705.911 265.313C709.802 268.121 714.916 269.525 721.253 269.525C728.353 269.525 734.028 267.94 738.28 264.772C742.531 261.563 744.657 257.552 744.657 252.739C744.657 249.009 743.414 245.88 740.927 243.353C738.44 240.786 734.67 238.901 729.616 237.698L714.515 234.088C706.493 232.163 700.557 229.114 696.706 224.943C692.856 220.771 690.93 215.597 690.93 209.42C690.93 204.327 692.314 199.854 695.082 196.004C697.849 192.113 701.66 189.065 706.513 186.859C711.366 184.653 716.901 183.55 723.118 183.55C731.581 183.55 738.34 185.475 743.394 189.326C748.488 193.136 752.158 198.39 754.404 205.089Z" fill="white"/>
</g>
<defs>
<clipPath id="clip0_2380_148">
<rect width="1200" height="457" fill="white"/>
</clipPath>
</defs>
</svg>
